<mxfile host="65bd71144e">
    <diagram id="K9tdpp2gKXIHnt1HSWHF" name="Página-1">
        <mxGraphModel dx="1163" dy="2416" grid="1" gridSize="10" guides="1" tooltips="1" connect="1" arrows="1" fold="1" page="1" pageScale="1" pageWidth="900" pageHeight="1600" background="#ffffff" math="0" shadow="0">
            <root>
                <mxCell id="0"/>
                <mxCell id="1" parent="0"/>
                <UserObject label="" lucidchartObjectId="sv5FRH7WopwM" id="27">
                    <mxCell style="html=1;jettySize=18;whiteSpace=wrap;fontSize=13.3;fontColor=#333333;fontStyle=1;strokeColor=#5E5E5E;strokeWidth=1.5;rounded=1;arcSize=12;edgeStyle=orthogonalEdgeStyle;startArrow=none;endArrow=block;endFill=1;exitX=0.009;exitY=0.5;exitPerimeter=0;entryX=0.009;entryY=0.5;entryPerimeter=0;" parent="1" edge="1">
                        <mxGeometry width="100" height="100" relative="1" as="geometry">
                            <Array as="points">
                                <mxPoint x="735" y="1425"/>
                                <mxPoint x="735" y="1114"/>
                            </Array>
                            <mxPoint x="836.1699999999992" y="1113.999999999999" as="targetPoint"/>
                        </mxGeometry>
                    </mxCell>
                </UserObject>
                <mxCell id="28" value="Não" style="text;html=1;resizable=0;labelBackgroundColor=default;align=center;verticalAlign=middle;fontStyle=1;fontColor=#333333;fontSize=13.3;rounded=1;" parent="27" vertex="1">
                    <mxGeometry relative="1" as="geometry"/>
                </mxCell>
                <UserObject label="QUESTÃO 09 - AdemarROV" lucidchartObjectId="hB5FAly2sNbj" id="34">
                    <mxCell style="html=1;overflow=block;blockSpacing=1;whiteSpace=wrap;fontSize=16.7;fontColor=#333333;spacing=0;strokeColor=#5e5e5e;strokeOpacity=100;rounded=1;absoluteArcSize=1;arcSize=9;strokeWidth=2.3;fillColor=none;" parent="1" vertex="1">
                        <mxGeometry x="20" y="-1580" width="180" height="45" as="geometry"/>
                    </mxCell>
                </UserObject>
                <mxCell id="139" value="" style="edgeStyle=none;html=1;" edge="1" parent="1" source="67" target="138">
                    <mxGeometry relative="1" as="geometry"/>
                </mxCell>
                <UserObject label="INICIO" lucidchartObjectId="Ef6FRvu7aNQY" id="67">
                    <mxCell style="html=1;overflow=block;blockSpacing=1;whiteSpace=wrap;ellipse;fontSize=13;spacing=3.8;strokeColor=#5e5e5e;strokeOpacity=100;rounded=1;absoluteArcSize=1;arcSize=9;strokeWidth=2.3;" parent="1" vertex="1">
                        <mxGeometry x="389.85" y="-1440" width="120" height="90" as="geometry"/>
                    </mxCell>
                </UserObject>
                <UserObject label="FIM" lucidchartObjectId="Ef6FRvu7aNQY" id="123">
                    <mxCell style="html=1;overflow=block;blockSpacing=1;whiteSpace=wrap;ellipse;fontSize=13;spacing=3.8;strokeColor=#5e5e5e;strokeOpacity=100;rounded=1;absoluteArcSize=1;arcSize=9;strokeWidth=2.3;" parent="1" vertex="1">
                        <mxGeometry x="390" y="-750" width="120" height="90" as="geometry"/>
                    </mxCell>
                </UserObject>
                <mxCell id="141" value="" style="edgeStyle=none;html=1;" edge="1" parent="1" source="138" target="140">
                    <mxGeometry relative="1" as="geometry"/>
                </mxCell>
                <mxCell id="138" value="energia &amp;lt;- 100&lt;br&gt;dano &amp;lt;- 10" style="whiteSpace=wrap;html=1;fontSize=13;strokeColor=#5e5e5e;spacing=3.8;rounded=1;arcSize=9;strokeWidth=2.3;" vertex="1" parent="1">
                    <mxGeometry x="389.85" y="-1255" width="120" height="60" as="geometry"/>
                </mxCell>
                <mxCell id="144" value="" style="edgeStyle=none;html=1;" edge="1" parent="1" source="140" target="143">
                    <mxGeometry relative="1" as="geometry"/>
                </mxCell>
                <mxCell id="140" value="energia &amp;lt;- energia - dano" style="whiteSpace=wrap;html=1;fontSize=13;strokeColor=#5e5e5e;spacing=3.8;rounded=1;arcSize=9;strokeWidth=2.3;" vertex="1" parent="1">
                    <mxGeometry x="389.85" y="-1115" width="120" height="60" as="geometry"/>
                </mxCell>
                <mxCell id="145" style="edgeStyle=elbowEdgeStyle;html=1;exitX=0;exitY=0.5;exitDx=0;exitDy=0;entryX=0;entryY=0.5;entryDx=0;entryDy=0;strokeColor=#FF0000;" edge="1" parent="1" source="143" target="140">
                    <mxGeometry relative="1" as="geometry">
                        <Array as="points">
                            <mxPoint x="340" y="-1020"/>
                        </Array>
                    </mxGeometry>
                </mxCell>
                <mxCell id="150" value="NÃO" style="edgeLabel;html=1;align=center;verticalAlign=middle;resizable=0;points=[];" vertex="1" connectable="0" parent="145">
                    <mxGeometry x="0.1688" relative="1" as="geometry">
                        <mxPoint as="offset"/>
                    </mxGeometry>
                </mxCell>
                <mxCell id="147" value="" style="edgeStyle=elbowEdgeStyle;html=1;strokeColor=#00CC00;" edge="1" parent="1" source="143" target="146">
                    <mxGeometry relative="1" as="geometry"/>
                </mxCell>
                <mxCell id="149" value="SIM" style="edgeLabel;html=1;align=center;verticalAlign=middle;resizable=0;points=[];" vertex="1" connectable="0" parent="147">
                    <mxGeometry x="-0.32" relative="1" as="geometry">
                        <mxPoint as="offset"/>
                    </mxGeometry>
                </mxCell>
                <mxCell id="143" value="energia &amp;lt;= 0" style="rhombus;whiteSpace=wrap;html=1;fontSize=13;strokeColor=#5e5e5e;spacing=3.8;rounded=1;arcSize=9;strokeWidth=2.3;" vertex="1" parent="1">
                    <mxGeometry x="407.35" y="-990" width="85" height="85" as="geometry"/>
                </mxCell>
                <mxCell id="148" value="" style="edgeStyle=elbowEdgeStyle;html=1;" edge="1" parent="1" source="146" target="123">
                    <mxGeometry relative="1" as="geometry"/>
                </mxCell>
                <mxCell id="146" value="&quot;Você morreu!&quot;" style="shape=display;whiteSpace=wrap;html=1;rounded=1;" vertex="1" parent="1">
                    <mxGeometry x="400" y="-840" width="100" height="50" as="geometry"/>
                </mxCell>
            </root>
        </mxGraphModel>
    </diagram>
</mxfile>